<svg xmlns="http://www.w3.org/2000/svg" viewBox="0 0 128 128"><rect width="128" height="128" fill="#fe3b49"/><path transform="rotate(0 64 68)" d="M64 16v16" stroke="#1a1414" stroke-width="11" stroke-linecap="round"/><path transform="rotate(0 64 68)" d="M64 16v16" stroke="#ffd23f" stroke-width="6" stroke-linecap="round"/><path transform="rotate(30 64 68)" d="M64 16v16" stroke="#1a1414" stroke-width="11" stroke-linecap="round"/><path transform="rotate(30 64 68)" d="M64 16v16" stroke="#ffd23f" stroke-width="6" stroke-linecap="round"/><path transform="rotate(60 64 68)" d="M64 16v16" stroke="#1a1414" stroke-width="11" stroke-linecap="round"/><path transform="rotate(60 64 68)" d="M64 16v16" stroke="#ffd23f" stroke-width="6" stroke-linecap="round"/><path transform="rotate(90 64 68)" d="M64 16v16" stroke="#1a1414" stroke-width="11" stroke-linecap="round"/><path transform="rotate(90 64 68)" d="M64 16v16" stroke="#ffd23f" stroke-width="6" stroke-linecap="round"/><path transform="rotate(120 64 68)" d="M64 16v16" stroke="#1a1414" stroke-width="11" stroke-linecap="round"/><path transform="rotate(120 64 68)" d="M64 16v16" stroke="#ffd23f" stroke-width="6" stroke-linecap="round"/><path transform="rotate(150 64 68)" d="M64 16v16" stroke="#1a1414" stroke-width="11" stroke-linecap="round"/><path transform="rotate(150 64 68)" d="M64 16v16" stroke="#ffd23f" stroke-width="6" stroke-linecap="round"/><path transform="rotate(180 64 68)" d="M64 16v16" stroke="#1a1414" stroke-width="11" stroke-linecap="round"/><path transform="rotate(180 64 68)" d="M64 16v16" stroke="#ffd23f" stroke-width="6" stroke-linecap="round"/><path transform="rotate(210 64 68)" d="M64 16v16" stroke="#1a1414" stroke-width="11" stroke-linecap="round"/><path transform="rotate(210 64 68)" d="M64 16v16" stroke="#ffd23f" stroke-width="6" stroke-linecap="round"/><path transform="rotate(240 64 68)" d="M64 16v16" stroke="#1a1414" stroke-width="11" stroke-linecap="round"/><path transform="rotate(240 64 68)" d="M64 16v16" stroke="#ffd23f" stroke-width="6" stroke-linecap="round"/><path transform="rotate(270 64 68)" d="M64 16v16" stroke="#1a1414" stroke-width="11" stroke-linecap="round"/><path transform="rotate(270 64 68)" d="M64 16v16" stroke="#ffd23f" stroke-width="6" stroke-linecap="round"/><path transform="rotate(300 64 68)" d="M64 16v16" stroke="#1a1414" stroke-width="11" stroke-linecap="round"/><path transform="rotate(300 64 68)" d="M64 16v16" stroke="#ffd23f" stroke-width="6" stroke-linecap="round"/><path transform="rotate(330 64 68)" d="M64 16v16" stroke="#1a1414" stroke-width="11" stroke-linecap="round"/><path transform="rotate(330 64 68)" d="M64 16v16" stroke="#ffd23f" stroke-width="6" stroke-linecap="round"/><circle cx="64" cy="68" r="32" fill="#ffd23f" stroke="#1a1414" stroke-width="5" stroke-linejoin="round" stroke-linecap="round"/><path d="M34 60h26v12q0 8-8 8h-10q-8 0-8-8zM68 60h26v12q0 8-8 8h-10q-8 0-8-8z" fill="#1a1414" stroke="#1a1414" stroke-width="5" stroke-linejoin="round" stroke-linecap="round"/><path d="M60 64h8" stroke="#1a1414" stroke-width="5" stroke-linejoin="round" stroke-linecap="round"/><path d="M40 64h10M74 64h10" stroke="#fff" stroke-width="2" opacity=".5"/><path d="M50 84q14 10 28 0" fill="none" stroke="#1a1414" stroke-width="5" stroke-linejoin="round" stroke-linecap="round"/></svg>